<svg width="203" height="28" viewBox="0 0 203 28" fill="none" xmlns="http://www.w3.org/2000/svg">
<path d="M9.7 1.728C12.364 1.728 14.692 2.256 16.684 3.312C18.676 4.368 20.212 5.856 21.292 7.776C22.396 9.672 22.948 11.868 22.948 14.364C22.948 16.836 22.396 19.032 21.292 20.952C20.212 22.872 18.664 24.36 16.648 25.416C14.656 26.472 12.34 27 9.7 27H0.232V1.728H9.7ZM9.304 21.672C11.632 21.672 13.444 21.036 14.74 19.764C16.036 18.492 16.684 16.692 16.684 14.364C16.684 12.036 16.036 10.224 14.74 8.928C13.444 7.632 11.632 6.984 9.304 6.984H6.388V21.672H9.304ZM25.1643 16.92C25.1643 14.856 25.5483 13.044 26.3163 11.484C27.1083 9.924 28.1763 8.724 29.5203 7.884C30.8643 7.044 32.3643 6.624 34.0203 6.624C35.4363 6.624 36.6723 6.912 37.7283 7.488C38.8083 8.064 39.6363 8.82 40.2123 9.756V6.912H46.3683V27H40.2123V24.156C39.6123 25.092 38.7723 25.848 37.6923 26.424C36.6363 27 35.4003 27.288 33.9843 27.288C32.3523 27.288 30.8643 26.868 29.5203 26.028C28.1763 25.164 27.1083 23.952 26.3163 22.392C25.5483 20.808 25.1643 18.984 25.1643 16.92ZM40.2123 16.956C40.2123 15.42 39.7803 14.208 38.9163 13.32C38.0763 12.432 37.0443 11.988 35.8203 11.988C34.5963 11.988 33.5523 12.432 32.6883 13.32C31.8483 14.184 31.4283 15.384 31.4283 16.92C31.4283 18.456 31.8483 19.68 32.6883 20.592C33.5523 21.48 34.5963 21.924 35.8203 21.924C37.0443 21.924 38.0763 21.48 38.9163 20.592C39.7803 19.704 40.2123 18.492 40.2123 16.956ZM58.9938 27.288C57.2418 27.288 55.6818 26.988 54.3138 26.388C52.9458 25.788 51.8658 24.972 51.0738 23.94C50.2818 22.884 49.8378 21.708 49.7418 20.412H55.8258C55.8978 21.108 56.2218 21.672 56.7978 22.104C57.3738 22.536 58.0818 22.752 58.9218 22.752C59.6898 22.752 60.2778 22.608 60.6858 22.32C61.1178 22.008 61.3338 21.612 61.3338 21.132C61.3338 20.556 61.0338 20.136 60.4338 19.872C59.8338 19.584 58.8618 19.272 57.5178 18.936C56.0778 18.6 54.8778 18.252 53.9178 17.892C52.9578 17.508 52.1298 16.92 51.4338 16.128C50.7378 15.312 50.3898 14.22 50.3898 12.852C50.3898 11.7 50.7018 10.656 51.3258 9.72C51.9738 8.76 52.9098 8.004 54.1338 7.452C55.3818 6.9 56.8578 6.624 58.5618 6.624C61.0818 6.624 63.0618 7.248 64.5018 8.496C65.9658 9.744 66.8058 11.4 67.0218 13.464H61.3338C61.2378 12.768 60.9258 12.216 60.3978 11.808C59.8938 11.4 59.2218 11.196 58.3818 11.196C57.6618 11.196 57.1098 11.34 56.7258 11.628C56.3418 11.892 56.1498 12.264 56.1498 12.744C56.1498 13.32 56.4498 13.752 57.0498 14.04C57.6738 14.328 58.6338 14.616 59.9298 14.904C61.4178 15.288 62.6298 15.672 63.5658 16.056C64.5018 16.416 65.3178 17.016 66.0138 17.856C66.7338 18.672 67.1058 19.776 67.1298 21.168C67.1298 22.344 66.7938 23.4 66.1218 24.336C65.4738 25.248 64.5258 25.968 63.2778 26.496C62.0538 27.024 60.6258 27.288 58.9938 27.288ZM83.2441 6.696C85.5481 6.696 87.3961 7.464 88.7881 9C90.1801 10.512 90.8761 12.6 90.8761 15.264V27H84.7561V16.092C84.7561 14.748 84.4081 13.704 83.7121 12.96C83.0161 12.216 82.0801 11.844 80.9041 11.844C79.7281 11.844 78.7921 12.216 78.0961 12.96C77.4001 13.704 77.0521 14.748 77.0521 16.092V27H70.8961V0.36H77.0521V9.612C77.6761 8.724 78.5281 8.016 79.6081 7.488C80.6881 6.96 81.9001 6.696 83.2441 6.696ZM101.31 9.756C101.886 8.82 102.714 8.064 103.794 7.488C104.874 6.912 106.11 6.624 107.502 6.624C109.158 6.624 110.658 7.044 112.002 7.884C113.346 8.724 114.402 9.924 115.17 11.484C115.962 13.044 116.358 14.856 116.358 16.92C116.358 18.984 115.962 20.808 115.17 22.392C114.402 23.952 113.346 25.164 112.002 26.028C110.658 26.868 109.158 27.288 107.502 27.288C106.086 27.288 104.85 27.012 103.794 26.46C102.738 25.884 101.91 25.128 101.31 24.192V27H95.1539V0.36H101.31V9.756ZM110.094 16.92C110.094 15.384 109.662 14.184 108.798 13.32C107.958 12.432 106.914 11.988 105.666 11.988C104.442 11.988 103.398 12.432 102.534 13.32C101.694 14.208 101.274 15.42 101.274 16.956C101.274 18.492 101.694 19.704 102.534 20.592C103.398 21.48 104.442 21.924 105.666 21.924C106.89 21.924 107.934 21.48 108.798 20.592C109.662 19.68 110.094 18.456 110.094 16.92ZM128.731 27.288C126.763 27.288 124.987 26.868 123.403 26.028C121.843 25.188 120.607 23.988 119.695 22.428C118.807 20.868 118.363 19.044 118.363 16.956C118.363 14.892 118.819 13.08 119.731 11.52C120.643 9.936 121.891 8.724 123.475 7.884C125.059 7.044 126.835 6.624 128.803 6.624C130.771 6.624 132.547 7.044 134.131 7.884C135.715 8.724 136.963 9.936 137.875 11.52C138.787 13.08 139.243 14.892 139.243 16.956C139.243 19.02 138.775 20.844 137.839 22.428C136.927 23.988 135.667 25.188 134.059 26.028C132.475 26.868 130.699 27.288 128.731 27.288ZM128.731 21.96C129.907 21.96 130.903 21.528 131.719 20.664C132.559 19.8 132.979 18.564 132.979 16.956C132.979 15.348 132.571 14.112 131.755 13.248C130.963 12.384 129.979 11.952 128.803 11.952C127.603 11.952 126.607 12.384 125.815 13.248C125.023 14.088 124.627 15.324 124.627 16.956C124.627 18.564 125.011 19.8 125.779 20.664C126.571 21.528 127.555 21.96 128.731 21.96ZM141.285 16.92C141.285 14.856 141.669 13.044 142.437 11.484C143.229 9.924 144.297 8.724 145.641 7.884C146.985 7.044 148.485 6.624 150.141 6.624C151.557 6.624 152.793 6.912 153.849 7.488C154.929 8.064 155.757 8.82 156.333 9.756V6.912H162.489V27H156.333V24.156C155.733 25.092 154.893 25.848 153.813 26.424C152.757 27 151.521 27.288 150.105 27.288C148.473 27.288 146.985 26.868 145.641 26.028C144.297 25.164 143.229 23.952 142.437 22.392C141.669 20.808 141.285 18.984 141.285 16.92ZM156.333 16.956C156.333 15.42 155.901 14.208 155.037 13.32C154.197 12.432 153.165 11.988 151.941 11.988C150.717 11.988 149.673 12.432 148.809 13.32C147.969 14.184 147.549 15.384 147.549 16.92C147.549 18.456 147.969 19.68 148.809 20.592C149.673 21.48 150.717 21.924 151.941 21.924C153.165 21.924 154.197 21.48 155.037 20.592C155.901 19.704 156.333 18.492 156.333 16.956ZM173.099 10.26C173.819 9.156 174.719 8.292 175.799 7.668C176.879 7.02 178.079 6.696 179.399 6.696V13.212H177.707C176.171 13.212 175.019 13.548 174.251 14.22C173.483 14.868 173.099 16.02 173.099 17.676V27H166.943V6.912H173.099V10.26ZM181.117 16.92C181.117 14.856 181.501 13.044 182.269 11.484C183.061 9.924 184.129 8.724 185.473 7.884C186.817 7.044 188.317 6.624 189.973 6.624C191.293 6.624 192.493 6.9 193.573 7.452C194.677 8.004 195.541 8.748 196.165 9.684V0.36H202.321V27H196.165V24.12C195.589 25.08 194.761 25.848 193.681 26.424C192.625 27 191.389 27.288 189.973 27.288C188.317 27.288 186.817 26.868 185.473 26.028C184.129 25.164 183.061 23.952 182.269 22.392C181.501 20.808 181.117 18.984 181.117 16.92ZM196.165 16.956C196.165 15.42 195.733 14.208 194.869 13.32C194.029 12.432 192.997 11.988 191.773 11.988C190.549 11.988 189.505 12.432 188.641 13.32C187.801 14.184 187.381 15.384 187.381 16.92C187.381 18.456 187.801 19.68 188.641 20.592C189.505 21.48 190.549 21.924 191.773 21.924C192.997 21.924 194.029 21.48 194.869 20.592C195.733 19.704 196.165 18.492 196.165 16.956Z" fill="#303972"/>
</svg>
