<svg width="35" height="35" viewBox="0 0 35 35" fill="none" xmlns="http://www.w3.org/2000/svg">
<g id="Icon hand">
<path id="Vector" d="M31.367 30.3016C31.2673 30.6061 31.0293 30.9438 30.639 31.0576C30.3573 31.1398 21.035 33.84 20.748 33.9153C19.9273 34.134 19.3568 33.9731 18.9823 33.6423C18.4118 33.1401 11.8195 28.6548 3.50353 28.2313C2.61453 28.1875 3.05028 24.8171 5.59128 24.8171C7.33253 24.8171 12.4233 26.0823 13.0375 25.4663C13.5118 24.9903 13.727 22.1781 11.7478 17.2711L7.76653 7.4063C7.60622 6.96117 7.62467 6.47124 7.81799 6.03942C8.01131 5.60761 8.36446 5.26752 8.80325 5.0906C9.24204 4.91368 9.73232 4.91369 10.1711 5.09065C10.6099 5.2676 10.963 5.60772 11.1563 6.03955L14.6318 14.6478C14.9695 15.4878 15.386 15.8063 15.8393 15.6313C16.2435 15.4773 16.3275 15.2078 16.0825 14.3905L12.502 3.84155C12.4247 3.6145 12.3928 3.37443 12.4083 3.13507C12.4238 2.89571 12.4863 2.66174 12.5923 2.44656C12.6983 2.23137 12.8456 2.03918 13.0259 1.88098C13.2062 1.72277 13.4159 1.60165 13.643 1.52455C13.8702 1.44669 14.1105 1.41446 14.3501 1.4297C14.5897 1.44495 14.824 1.50737 15.0394 1.61338C15.2549 1.7194 15.4473 1.86692 15.6055 2.04748C15.7638 2.22804 15.8849 2.43808 15.9618 2.66555L19.3673 12.6965C19.6683 13.5785 19.9868 14.0405 20.4908 13.827C20.7935 13.6993 20.7725 13.2355 20.692 12.8313L18.3015 3.25705C18.2358 3.02164 18.2179 2.77545 18.249 2.53302C18.28 2.2906 18.3593 2.05685 18.4822 1.8456C18.6052 1.63434 18.7692 1.44987 18.9646 1.30308C19.16 1.15629 19.3829 1.05017 19.62 0.990971C19.8571 0.931776 20.1037 0.920715 20.3452 0.958441C20.5867 0.996167 20.8181 1.08192 21.0259 1.21062C21.2337 1.33932 21.4136 1.50837 21.5549 1.70777C21.6962 1.90717 21.7962 2.13287 21.8488 2.37155L24.0538 11.195C24.3758 12.4918 24.6715 12.959 25.1843 12.8313C25.7075 12.7035 25.683 12.273 25.6113 11.9178L24.0853 4.3438C24.0229 3.92244 24.1247 3.49323 24.3696 3.14471C24.6145 2.79619 24.9838 2.55495 25.4013 2.47077C25.8189 2.38659 26.2528 2.46588 26.6136 2.69229C26.9744 2.9187 27.2345 3.27495 27.3403 3.68755L28.9993 11.9318L29.001 11.9335V11.9353L29.995 16.8791C30.212 17.8118 30.4605 18.6903 30.7825 19.5513C32.6813 24.607 31.6908 29.2883 31.367 30.3016Z" fill="#4F4F4F"/>
</g>
</svg>
